<svg width="32" height="32" viewBox="0 0 32 32" fill="none" xmlns="http://www.w3.org/2000/svg">
<g id="shield (2) 1 (traced)">
<g id="Yellow">
<path id="Vector" d="M15 1.04375C14.5687 1.1125 13.7312 1.35 13.3125 1.5125C12.2375 1.9375 11.4312 2.3875 9.31875 3.74375C8.71875 4.125 8.01875 4.54375 7.75625 4.675C7.33125 4.88125 7.2375 4.90625 6.7875 4.90625C6.3125 4.90625 6.2375 4.8875 5.53125 4.56875C5.11875 4.38125 4.55625 4.15 4.28125 4.05625C3.21875 3.68125 2.6375 3.8875 2.375 4.7375C2.25625 5.125 2.25 5.3375 2.25 11.15C2.25 14.9438 2.275 17.35 2.3125 17.6875C2.8375 21.925 5.90625 25.9812 10.825 28.9125C12.775 30.0687 15.075 31 16 31C16.7 31 18.2125 30.4688 19.775 29.675C23.9687 27.5438 27.2562 24.3812 28.7062 21.0938C29.2062 19.9563 29.4875 19.0188 29.6562 17.8875C29.8 16.9625 29.7937 5.3875 29.6562 4.84375C29.4812 4.16875 29.1437 3.875 28.5562 3.875C28.15 3.875 27.725 4.01875 26.4062 4.59375C25.6187 4.94375 25.5812 4.95 25.1437 4.925C24.5562 4.8875 24.0375 4.625 22.2812 3.49375C20.7187 2.4875 20.0375 2.09375 19.2812 1.7625C17.9625 1.1875 17.125 0.99375 15.9437 1.00625C15.5125 1.0125 15.0875 1.03125 15 1.04375ZM17.5312 6.6625C21.1062 7.2375 24.1 9.8875 25.0875 13.3562C25.35 14.2812 25.4437 14.9562 25.4437 16C25.4437 17.4625 25.2062 18.5875 24.6312 19.8812C23.225 23.0375 20.175 25.175 16.7125 25.4313C11.4937 25.825 6.95625 21.9187 6.56875 16.7125C6.30625 13.225 7.9375 9.95625 10.8937 8.0375C12.8312 6.775 15.1875 6.2875 17.5312 6.6625Z" fill="#53C1D0"/>
</g>
<g id="Red">
<path id="Vector_2" d="M18.1562 7.9625C17.925 8.0625 17.55 8.46875 17.3812 8.80625C17.0562 9.44375 16.8812 10.4187 16.8125 12.0625C16.7562 13.4 16.6687 13.8062 16.3125 14.425C16.0625 14.8562 15.6562 15.125 15.2562 15.125C14.6937 15.1187 14.2 14.7562 14.0625 14.2437C13.975 13.9375 14.0187 13.7375 14.2687 13.2C14.4937 12.7188 14.5625 12.0562 14.4375 11.4812C14.2875 10.75 13.675 9.8125 13.2812 9.7125C12.8812 9.6125 12.7625 9.7375 12.4437 10.6187C12.175 11.3562 11.9 11.7625 11.1187 12.6C9.57495 14.2312 9.1437 15.0625 8.9937 16.6813C8.8437 18.275 9.23745 19.8812 10.075 21.1125C10.7187 22.0625 11.8937 22.9875 13.0312 23.4375C13.4625 23.6125 14.5937 23.9375 14.7625 23.9375C14.8 23.9375 14.6562 23.825 14.45 23.6875C13.7937 23.2437 13.3187 22.4875 13.1875 21.6562C13.0437 20.7562 13.3562 19.6437 13.8125 19.4062C14.1375 19.2375 14.425 19.3 14.75 19.5938C14.9625 19.7875 15.1562 19.8375 15.325 19.7438C15.6875 19.55 15.7062 19.3063 15.4 18.6687C15.2312 18.3125 15.175 18.1062 15.1687 17.8438C15.1625 17.5187 15.1812 17.4688 15.3437 17.3312C15.4937 17.2 15.5687 17.1813 15.8 17.2062C16.2437 17.2562 16.9375 17.6375 17.4562 18.125C18.25 18.8625 18.6687 19.6687 18.8187 20.7188C18.9812 21.8937 18.4875 23.0625 17.5562 23.6813C17.35 23.8188 17.2 23.9375 17.2312 23.9375C17.4187 23.9375 18.6375 23.5875 19.0187 23.425C20.1562 22.9437 21.2812 22.05 21.9312 21.1063C22.7562 19.9 23.15 18.3063 23.0062 16.7375C22.825 14.7937 22.0687 13.1937 20.4187 11.2312C19.8687 10.5813 19.6812 10.175 19.4125 9.1C19.1375 8.0125 19.0437 7.875 18.6 7.875C18.4562 7.88125 18.2625 7.91875 18.1562 7.9625Z" fill="#7ED1E1"/>
</g>
<g id="LightGray">
<path id="Vector_3" d="M14.9375 6.62493C13.0187 6.85618 11.2812 7.62493 9.79996 8.89993C8.23121 10.2437 7.08121 12.2874 6.71871 14.3624C6.07496 18.0499 7.68746 21.8187 10.7812 23.8437C12.8375 25.1937 15.2562 25.6999 17.6375 25.2812C19.7062 24.9187 21.7562 23.7687 23.1 22.1999C25.1125 19.8624 25.8687 16.7687 25.1562 13.7812C24.3 10.1624 21.3187 7.36868 17.625 6.71243C16.9625 6.59368 15.5625 6.54993 14.9375 6.62493ZM18.9937 7.94368C19.1812 8.11868 19.2875 8.37493 19.4375 9.04368C19.7125 10.2374 19.8062 10.4187 20.6937 11.5124C22.3437 13.5437 23.0625 15.3124 23.0625 17.3749C23.0625 18.2749 22.9375 19.0312 22.6625 19.7562C21.8687 21.8812 20 23.3999 17.575 23.9062C16.9312 24.0374 16.8625 24.0249 17.25 23.8312C17.7062 23.6062 18.2562 23.0437 18.4937 22.5562C18.9937 21.5249 18.8812 20.1937 18.2 19.0749C17.7687 18.3562 16.9687 17.6562 16.2562 17.3749C15.25 16.9812 14.9187 17.5374 15.4625 18.7187C15.5875 18.9874 15.6875 19.2562 15.6875 19.3187C15.6875 19.3749 15.6125 19.5124 15.525 19.6187C15.3 19.8874 15.0437 19.8812 14.6687 19.5874C14.1625 19.1937 13.7375 19.3062 13.4625 19.8999C13.075 20.7437 13.1125 21.8374 13.55 22.6499C13.775 23.0749 14.3375 23.6249 14.75 23.8312C15.1375 24.0249 15.0625 24.0374 14.4 23.8999C11.575 23.3187 9.48746 21.2624 9.02496 18.6124C8.88121 17.7999 8.93121 16.2249 9.11871 15.5749C9.39371 14.6312 9.96246 13.7562 11.0125 12.6499C11.3375 12.3062 11.6875 11.9187 11.7937 11.7812C12.0125 11.4937 12.3187 10.8999 12.4375 10.5312C12.7625 9.51868 13.1375 9.38118 13.7687 10.0562C14.2875 10.6124 14.6062 11.5562 14.5375 12.3374C14.5062 12.6374 14.4312 12.9249 14.2812 13.2562C14.1562 13.5187 14.0625 13.8374 14.0625 13.9624C14.0625 14.6437 14.7937 15.2187 15.4625 15.0687C16.2187 14.8937 16.75 13.8062 16.75 12.4437C16.75 10.5124 17.125 8.86868 17.7062 8.25618C18.1062 7.83743 18.7187 7.68743 18.9937 7.94368Z" fill="#C0E6EA"/>
</g>
</g>
</svg>
