<svg width="24" height="23" viewBox="0 0 24 23" fill="none" xmlns="http://www.w3.org/2000/svg">
<g id="Group 23595">
<path id="Rectangle 10628" d="M8.95755 11.4033L8.95998 11.3993L10.2773 12.1886L10.2749 12.1927L8.95755 11.4033Z" fill="#424343"/>
<path id="Path 22159" d="M9.13834 17.2478L7.52117 17.0412L7.35348 17.0299L6.0205 19.1927L4.58995 20.1827L4.84006 18.3894L5.80071 16.83C5.77419 16.8205 5.7467 16.8148 5.72112 16.8034L5.52409 16.7087L4.67807 16.0654L4.13522 16.4652C4.01567 16.5515 3.88888 16.6272 3.75628 16.6916L3.19258 17.6011C3.12741 17.7071 3.08512 17.8255 3.06846 17.9488L2.51047 21.9742C2.479 22.2124 2.54263 22.4534 2.68761 22.645C2.82813 22.8299 3.03447 22.9537 3.26379 22.9905C3.49311 23.0274 3.72782 22.9746 3.91922 22.843L7.20473 20.5693C7.30726 20.4974 7.39427 20.4055 7.46054 20.2993L9.32497 17.2752C9.30886 17.2752 9.29276 17.2686 9.27949 17.2667L9.13834 17.2478Z" fill="#2994A3"/>
<path id="Path 22160" d="M19.0945 8.47229V9.29651C18.5496 9.10541 18.0344 8.83812 17.5644 8.50261C16.8812 8.0288 16.1303 7.66086 15.3372 7.41122L14.3661 9.00377C15.3402 9.31675 16.2756 9.73947 17.1542 10.2638C17.7672 10.6357 18.4171 10.943 19.0935 11.1809V17.768C18.2528 18.1336 17.3489 18.3318 16.4323 18.3516C16.2902 18.3573 16.1481 18.3592 16.0193 18.3601C14.6115 18.3201 13.2758 17.728 12.3008 16.7117L12.172 16.6169C10.522 15.5629 8.57883 15.0628 6.62504 15.1892C6.43308 15.1634 6.25444 15.0768 6.11536 14.942C6.07601 14.9036 6.03988 14.8621 6.00734 14.8178C5.92187 14.7 5.86225 14.5653 5.83237 14.4228C5.8025 14.2803 5.80305 14.1331 5.83399 13.9908C5.87719 13.7496 6.01213 13.5346 6.21051 13.3908C6.40888 13.247 6.65525 13.1856 6.89788 13.2196L14.9696 14.5933L15.2746 12.8075L12.3501 12.312L10.4288 11.9871V11.9918L8.91298 11.736V11.7313L7.05042 11.4186H6.98031C6.30723 11.3643 5.63753 11.5582 5.09766 11.9638C4.5578 12.3695 4.18516 12.9587 4.05008 13.6204C4.01189 13.8017 3.99158 13.9864 3.98945 14.1717L3.13207 14.9666C2.99123 15.0965 2.80639 15.1683 2.61478 15.1674H2.61004C2.55332 15.1694 2.49661 15.1636 2.44143 15.1504C2.33313 15.1247 2.23135 15.0767 2.14262 15.0095C2.05389 14.9423 1.98014 14.8573 1.92604 14.7601C1.86578 14.6533 1.82856 14.535 1.81682 14.413C1.80507 14.2909 1.81905 14.1677 1.85784 14.0514L1.95256 13.7492C2.61237 12.2215 3.68645 10.9088 5.05334 9.95968C6.18079 9.19658 7.45661 8.68005 8.79739 8.44387L9.99584 6.479C8.10166 6.56392 6.25707 7.11134 4.62322 8.07344C2.66965 9.22972 1.13953 10.9834 0.258645 13.0756L0.12224 13.5086C0.0117718 13.8635 -0.0243767 14.2374 0.0160468 14.6069C0.0564702 14.9764 0.172585 15.3336 0.357177 15.6563C0.535986 15.9698 0.77739 16.2432 1.06635 16.4595C1.35532 16.6758 1.68567 16.8303 2.03689 16.9135C2.6176 17.044 3.2257 16.9669 3.75544 16.6956C3.89016 16.6321 4.0189 16.5566 4.14008 16.4701L4.68197 16.0703L5.52799 16.7136L5.72598 16.8083C5.7525 16.8187 5.77904 16.8244 5.80557 16.8348C6.02168 16.9187 6.24778 16.9741 6.4782 16.9997H6.57295C6.59095 16.9997 6.89696 16.9997 7.35833 17.0328L7.52695 17.0442L9.14225 17.2507L9.28339 17.2763C9.29855 17.2763 9.31371 17.282 9.32887 17.2839C9.99906 17.3575 10.629 17.6406 11.1289 18.0929C12.43 19.3934 14.1838 20.1403 16.0231 20.1772C17.0716 20.2039 18.1159 20.0342 19.1021 19.677V20.9635H24V8.47229H19.0945ZM22 19H21V10H22V19Z" fill="#434344"/>
<path id="Path 22161" d="M16.6853 0.392883C16.4074 0.214401 16.0966 0.0932907 15.7712 0.0366724C15.4458 -0.019946 15.1124 -0.0109284 14.7906 0.0631953C14.4637 0.139084 14.1553 0.279601 13.8836 0.476471C13.6119 0.673341 13.3823 0.922582 13.2084 1.20952L9.99491 6.4817L8.79649 8.44657L6.98508 11.4185H7.05519L8.91679 11.733L12.5661 5.74464L13.7702 6.5177L10.4298 11.9888L12.352 12.3138L14.369 9.00647L15.34 7.41297L17.4821 3.90009C17.8321 3.32743 17.945 2.64084 17.7967 1.98626C17.6485 1.33169 17.2508 0.760736 16.6882 0.394781M15.9303 2.96407L14.7119 4.97063L13.5088 4.19851L14.7574 2.15975V2.15501C14.8043 2.07512 14.8665 2.00528 14.9405 1.94951C15.0145 1.89374 15.0987 1.85315 15.1884 1.83006C15.2745 1.81025 15.3637 1.80783 15.4508 1.82296C15.5378 1.83809 15.6209 1.87046 15.6953 1.91817C15.8025 1.98826 15.8902 2.08437 15.9501 2.19753C16.0101 2.31068 16.0404 2.43719 16.0382 2.56523C16.0379 2.70587 15.9993 2.84375 15.9265 2.96407" fill="#279EAE"/>
</g>
</svg>
