<svg width="64" height="64" viewBox="0 0 64 64" fill="none" xmlns="http://www.w3.org/2000/svg">
<path d="M29.2487 6.19937C25.149 6.893 21.5566 8.7358 18.6475 11.6449C15.6452 14.6576 13.7817 18.3639 13.1398 22.6396C12.8913 24.3167 12.9845 27.0292 13.3365 28.6339C14.0508 31.7811 15.8626 36.2017 18.3058 40.7259C22.3124 48.1489 28.1824 56.3068 31.0915 58.512C31.5574 58.864 31.7438 58.9468 32.2303 58.9779C32.779 59.0193 32.8619 58.9882 33.452 58.5948C35.9366 56.9384 41.993 48.6251 45.9995 41.3781C48.7534 36.3984 50.503 32.2263 51.3623 28.6028C51.7246 27.0602 51.8178 24.3478 51.5693 22.6396C50.9275 18.3639 49.064 14.6576 46.0617 11.6449C43.1215 8.70474 39.529 6.8723 35.3569 6.18901C33.7729 5.93019 30.812 5.94055 29.2487 6.19937ZM34.6115 10.5993C37.883 11.1273 40.7093 12.5456 42.9972 14.8129C45.4301 17.2044 46.8692 19.9996 47.4282 23.385C47.5939 24.441 47.6146 26.7289 47.4593 27.7642C46.9623 31.1082 45.4819 34.0587 43.1111 36.4191C40.1916 39.349 36.4646 40.8915 32.3546 40.8915C29.7664 40.8915 27.6337 40.3739 25.3354 39.173C23.886 38.4172 22.7782 37.5994 21.598 36.4191C19.2272 34.0587 17.7468 31.1082 17.2499 27.7642C17.0014 26.1078 17.1463 23.5817 17.5915 21.8528C18.9374 16.666 23.0681 12.4732 28.2652 10.9927C30.1391 10.4647 32.748 10.2991 34.6115 10.5993Z" fill="#8987D9"/>
<path d="M37 23.5V20C37 19.7348 36.8946 19.4804 36.7071 19.2929C36.5196 19.1054 36.2652 19 36 19H24C23.7348 19 23.4804 19.1054 23.2929 19.2929C23.1054 19.4804 23 19.7348 23 20V30C23 30.2652 23.1054 30.5196 23.2929 30.7071C23.4804 30.8946 23.7348 31 24 31H36C36.2652 31 36.5196 30.8946 36.7071 30.7071C36.8946 30.5196 37 30.2652 37 30V26.5L41 30.5V19.5L37 23.5Z" fill="#8987D9"/>
</svg>
