<svg width="14" height="14" viewBox="0 0 14 14" fill="none" xmlns="http://www.w3.org/2000/svg">
<path d="M6.99996 6.70835C6.61319 6.70835 6.24225 6.55471 5.96876 6.28122C5.69527 6.00773 5.54163 5.63679 5.54163 5.25002C5.54163 4.86325 5.69527 4.49231 5.96876 4.21882C6.24225 3.94533 6.61319 3.79169 6.99996 3.79169C7.38673 3.79169 7.75767 3.94533 8.03116 4.21882C8.30465 4.49231 8.45829 4.86325 8.45829 5.25002C8.45829 5.44153 8.42057 5.63117 8.34728 5.8081C8.274 5.98503 8.16658 6.1458 8.03116 6.28122C7.89574 6.41664 7.73497 6.52406 7.55804 6.59734C7.38111 6.67063 7.19147 6.70835 6.99996 6.70835ZM6.99996 1.16669C5.91699 1.16669 4.87838 1.59689 4.11261 2.36267C3.34683 3.12844 2.91663 4.16705 2.91663 5.25002C2.91663 8.31252 6.99996 12.8334 6.99996 12.8334C6.99996 12.8334 11.0833 8.31252 11.0833 5.25002C11.0833 4.16705 10.6531 3.12844 9.88731 2.36267C9.12154 1.59689 8.08293 1.16669 6.99996 1.16669Z" fill="#475259"/>
</svg>
