<svg width="42" height="42" viewBox="0 0 42 42" fill="none" xmlns="http://www.w3.org/2000/svg">
<g id="way 1 (traced)">
<g id="Black">
<g id="Vector">
<path fill-rule="evenodd" clip-rule="evenodd" d="M7.29636 18.9238C7.65713 18.7944 7.80112 18.7125 7.76202 18.6578L9.2046 20.6268C9.12936 20.6063 8.64375 20.7294 8.16498 20.8799C7.48786 21.1056 6.79707 21.4886 6.44141 21.8443C6.15415 22.1247 6.11311 22.1999 6.11311 22.4462C6.11311 22.6924 6.15415 22.7676 6.43457 23.048C7.31004 23.9098 9.09516 24.4365 11.1744 24.4365C13.2536 24.4365 15.0388 23.9098 15.9142 23.048C16.1946 22.7676 16.2357 22.6924 16.2357 22.4462C16.2357 22.1999 16.1946 22.1247 15.9005 21.8306C15.5175 21.4544 14.8746 21.1056 14.0812 20.8525C13.6111 20.7035 13.3861 20.6203 13.2032 20.6756C13.0704 20.7158 12.9597 20.829 12.7934 21.043L14.5873 18.657C14.5463 18.7117 14.6899 18.7938 15.0524 18.9238C16.8376 19.553 18.0003 20.5858 18.3149 21.8238L18.397 22.1247L22.1861 23.0686L25.9752 24.0056L26.2762 23.8004C26.7207 23.4926 27.6167 23.0959 28.2938 22.8976C29.5592 22.5282 29.9695 22.4804 31.7615 22.4804C33.2252 22.4804 33.533 22.5009 34.1896 22.6308C36.515 23.1028 38.1497 24.0877 38.7652 25.3872C38.9636 25.7975 38.9773 25.8865 38.9773 26.5499C38.9773 27.2133 38.9636 27.3023 38.7652 27.7126C38.1497 29.0053 36.5834 29.956 34.2238 30.4621C33.5945 30.5921 33.3004 30.6126 31.8299 30.6194C30.0379 30.6194 29.5318 30.5647 28.3554 30.2228L27.7946 30.0586L25.7017 31.2692C24.5526 31.9395 23.5951 32.5003 23.5745 32.5208C23.554 32.5482 23.6703 32.7124 23.8276 32.8902C23.9918 33.068 24.2175 33.4168 24.3337 33.6631C24.5321 34.0734 24.5458 34.1623 24.5458 34.8258C24.5458 35.4892 24.5321 35.5781 24.3269 36.0022C23.8276 37.0692 22.6444 37.9378 20.955 38.4781C19.8812 38.8269 19.163 38.9432 17.7199 38.9774C16.2562 39.0184 15.497 38.9432 14.3343 38.6559C12.4602 38.184 11.0718 37.2675 10.4494 36.1048C10.1827 35.6192 10.1827 35.6055 10.1827 34.86C10.1827 34.1213 10.1895 34.0871 10.4357 33.581C11.0034 32.4388 12.3645 31.5428 14.2659 31.064C15.4355 30.7699 16.181 30.7015 17.7199 30.7357C19.1288 30.7768 20.0727 30.9067 20.9208 31.2008C21.2286 31.3034 21.3448 31.3171 21.4611 31.2555C21.7484 31.1051 25.5033 28.9232 25.5649 28.8685C25.5991 28.8343 25.5033 28.677 25.3392 28.4992C25.175 28.3213 24.9493 27.9794 24.833 27.7263C24.6278 27.3023 24.6142 27.2133 24.6142 26.5636C24.6142 25.9138 24.6005 25.8591 24.4774 25.8249C24.4255 25.8155 23.6831 25.6302 22.6414 25.3701C22.1734 25.2533 21.6451 25.1214 21.0918 24.9836L17.843 24.1834L17.3574 24.628C16.352 25.565 14.943 26.16 13.0553 26.4473C12.1525 26.5841 10.2237 26.5841 9.30719 26.4473C6.79707 26.0711 4.96406 25.0657 4.2801 23.691C4.03388 23.1848 4.02704 23.1506 4.02704 22.412C4.02704 21.6938 4.04072 21.6391 4.25275 21.2219C4.76571 20.237 5.81217 19.4436 7.29636 18.9238ZM36.8912 26.5499C36.8912 25.7907 35.1813 24.8947 33.232 24.6417C32.1719 24.5049 30.7766 24.5254 29.8464 24.7032C28.6837 24.9152 27.562 25.4077 27.0285 25.948C26.7413 26.2284 26.7002 26.3037 26.7002 26.5499C26.7002 26.7961 26.7413 26.8714 27.0285 27.1518C27.6099 27.7331 28.7179 28.1982 30.0653 28.4239C30.9202 28.5744 32.5481 28.5744 33.4099 28.4376C35.3455 28.123 36.8912 27.2817 36.8912 26.5499ZM21.7142 33.8956C21.0097 33.4237 19.9564 33.068 18.8005 32.9175C17.7404 32.7808 16.3451 32.8013 15.4149 32.9791C14.2522 33.1911 13.1305 33.6836 12.597 34.2239C12.3098 34.5043 12.2687 34.5796 12.2687 34.8258C12.2687 35.0788 12.3098 35.1472 12.6312 35.4755C13.5067 36.3442 15.2987 36.8845 17.3232 36.8845C18.397 36.8845 19.0125 36.8093 19.929 36.563C21.2628 36.2142 22.4597 35.414 22.4597 34.8737C22.4597 34.5454 22.2203 34.2307 21.7142 33.8956Z" fill="#151515"/>
<path fill-rule="evenodd" clip-rule="evenodd" d="M4.22539 9.21158C5.01194 6.54414 7.00226 4.69746 9.74492 4.0819C10.0595 4.0135 10.511 3.98615 11.3454 4.00666C12.3645 4.02718 12.5833 4.0477 13.1237 4.21185C15.6064 4.95052 17.3916 6.73565 18.1234 9.21158C18.2739 9.71771 18.3081 10.0118 18.3423 10.8462C18.3901 12.3099 18.1781 13.3222 17.5831 14.4781C17.371 14.8884 15.5449 17.4259 14.5873 18.657L12.7934 21.043C12.7155 21.1434 12.6253 21.2659 12.515 21.4134C12.1867 21.8443 11.8378 22.2546 11.7352 22.323C11.6121 22.4051 11.4206 22.4462 11.1744 22.4462C10.9282 22.4462 10.7367 22.4051 10.6136 22.323C10.511 22.2546 10.1621 21.8443 9.84068 21.4134C9.51922 20.9825 9.23196 20.6268 9.2046 20.6268L7.76202 18.6578L7.76145 18.657C6.80391 17.4259 4.97774 14.8884 4.76571 14.4781C4.17067 13.3222 3.95864 12.3099 4.00652 10.8462C4.04072 10.0118 4.07492 9.71771 4.22539 9.21158ZM14.4095 7.24178C13.8829 6.80405 12.9458 6.33896 12.3234 6.20901C11.6805 6.07906 11.2565 6.0517 10.6546 6.10641C8.58904 6.29792 6.76971 7.86418 6.2499 9.90238C6.07891 10.5658 6.06523 11.6807 6.22254 12.3167C6.46193 13.2811 6.74235 13.7257 8.97889 16.7146C10.1553 18.2877 11.147 19.5735 11.1744 19.5735C11.2018 19.5735 12.1935 18.2877 13.3699 16.7146C15.6064 13.7257 15.8869 13.2811 16.1262 12.3167C16.2836 11.6807 16.2699 10.5658 16.0989 9.90238C15.8458 8.91064 15.2166 7.91206 14.4095 7.24178Z" fill="#2EB6C6"/>
</g>
<path id="Vector_2" fill-rule="evenodd" clip-rule="evenodd" d="M10.1554 8.213C9.33462 8.52078 8.73958 9.06111 8.34973 9.8545C8.1377 10.2922 8.13086 10.3401 8.13086 11.1609C8.13086 11.9953 8.1377 12.0295 8.3634 12.4946C8.67119 13.1238 9.21151 13.6641 9.84075 13.9719C10.3058 14.1976 10.34 14.2045 11.1745 14.2045C12.0089 14.2045 12.0431 14.1976 12.5082 13.9719C13.1374 13.6641 13.6778 13.1238 13.9855 12.4946C14.2112 12.0295 14.2181 11.9953 14.2181 11.1609C14.2181 10.3264 14.2112 10.2922 13.9855 9.82714C13.6778 9.1979 13.1374 8.65757 12.5082 8.35663C12.0636 8.13777 11.9679 8.11725 11.2771 8.10357C10.6615 8.08305 10.4563 8.10357 10.1554 8.213ZM11.6601 12.0158C12.2688 11.6943 12.2962 10.6958 11.7011 10.3401C11.5712 10.258 11.3591 10.2033 11.1745 10.2033C10.5999 10.2033 10.2169 10.5932 10.2169 11.1745C10.2169 11.9064 10.9898 12.3578 11.6601 12.0158Z" fill="#2EB6C6"/>
</g>
</g>
</svg>
