<svg width="16" height="16" viewBox="0 0 16 16" fill="none" xmlns="http://www.w3.org/2000/svg">
<g id="shield (2) 1 (traced)">
<g id="Yellow">
<path id="Vector" d="M7.5 0.521874C7.28437 0.55625 6.86562 0.675 6.65625 0.756249C6.11875 0.96875 5.71562 1.19375 4.65937 1.87187C4.35937 2.0625 4.00937 2.27187 3.87812 2.3375C3.66562 2.44063 3.61875 2.45312 3.39375 2.45312C3.15625 2.45312 3.11875 2.44375 2.76562 2.28438C2.55937 2.19063 2.27812 2.075 2.14062 2.02812C1.60937 1.84062 1.31875 1.94375 1.1875 2.36875C1.12812 2.5625 1.125 2.66875 1.125 5.575C1.125 7.47188 1.1375 8.675 1.15625 8.84375C1.41875 10.9625 2.95312 12.9906 5.4125 14.4562C6.3875 15.0344 7.5375 15.5 8 15.5C8.35 15.5 9.10625 15.2344 9.8875 14.8375C11.9844 13.7719 13.6281 12.1906 14.3531 10.5469C14.6031 9.97813 14.7437 9.50938 14.8281 8.94375C14.9 8.48125 14.8969 2.69375 14.8281 2.42188C14.7406 2.08437 14.5719 1.9375 14.2781 1.9375C14.075 1.9375 13.8625 2.00937 13.2031 2.29688C12.8094 2.47188 12.7906 2.475 12.5719 2.4625C12.2781 2.44375 12.0187 2.3125 11.1406 1.74687C10.3594 1.24375 10.0187 1.04688 9.64062 0.881249C8.98125 0.59375 8.5625 0.496875 7.97187 0.503125C7.75625 0.506249 7.54375 0.515625 7.5 0.521874ZM8.76562 3.33125C10.5531 3.61875 12.05 4.94375 12.5437 6.67812C12.675 7.14062 12.7219 7.47812 12.7219 8C12.7219 8.73125 12.6031 9.29375 12.3156 9.94062C11.6125 11.5187 10.0875 12.5875 8.35625 12.7156C5.74687 12.9125 3.47812 10.9594 3.28437 8.35625C3.15312 6.6125 3.96875 4.97812 5.44687 4.01875C6.41562 3.3875 7.59375 3.14375 8.76562 3.33125Z" fill="#D26B6B"/>
</g>
<g id="Red">
<path id="Vector_2" d="M9.0781 3.98125C8.96248 4.03125 8.77498 4.23438 8.6906 4.40312C8.5281 4.72187 8.4406 5.20937 8.40623 6.03125C8.3781 6.7 8.33435 6.90312 8.15623 7.2125C8.03123 7.42812 7.8281 7.5625 7.6281 7.5625C7.34685 7.55937 7.09998 7.37812 7.03123 7.12187C6.98748 6.96875 7.00935 6.86875 7.13435 6.6C7.24685 6.35938 7.28123 6.02812 7.21873 5.74062C7.14373 5.375 6.83748 4.90625 6.6406 4.85625C6.4406 4.80625 6.38123 4.86875 6.22185 5.30937C6.08748 5.67812 5.94998 5.88125 5.55935 6.3C4.78748 7.11562 4.57185 7.53125 4.49685 8.34063C4.42185 9.1375 4.61873 9.94062 5.03748 10.5562C5.35935 11.0312 5.94685 11.4938 6.5156 11.7188C6.73123 11.8062 7.29685 11.9688 7.38123 11.9688C7.39998 11.9688 7.3281 11.9125 7.22498 11.8438C6.89685 11.6219 6.65935 11.2437 6.59373 10.8281C6.52185 10.3781 6.6781 9.82187 6.90623 9.70312C7.06873 9.61875 7.21248 9.65 7.37498 9.79688C7.48123 9.89375 7.5781 9.91875 7.66248 9.87188C7.84373 9.775 7.8531 9.65313 7.69998 9.33437C7.6156 9.15625 7.58748 9.05312 7.58435 8.92188C7.58123 8.75937 7.5906 8.73438 7.67185 8.66562C7.74685 8.6 7.78435 8.59063 7.89998 8.60312C8.12185 8.62812 8.46873 8.81875 8.7281 9.0625C9.12498 9.43125 9.33435 9.83437 9.40935 10.3594C9.4906 10.9469 9.24373 11.5312 8.7781 11.8406C8.67498 11.9094 8.59998 11.9688 8.6156 11.9688C8.70935 11.9688 9.31873 11.7938 9.50935 11.7125C10.0781 11.4719 10.6406 11.025 10.9656 10.5531C11.3781 9.95 11.575 9.15313 11.5031 8.36875C11.4125 7.39687 11.0344 6.59687 10.2094 5.61562C9.93435 5.29063 9.8406 5.0875 9.70623 4.55C9.56873 4.00625 9.52185 3.9375 9.29998 3.9375C9.2281 3.94063 9.13123 3.95937 9.0781 3.98125Z" fill="#E17E7E"/>
</g>
<g id="LightGray">
<path id="Vector_3" d="M7.46873 3.31247C6.50935 3.42809 5.6406 3.81247 4.89998 4.44997C4.1156 5.12184 3.5406 6.14372 3.35935 7.18122C3.03748 9.02497 3.84373 10.9093 5.3906 11.9218C6.41873 12.5968 7.6281 12.85 8.81873 12.6406C9.8531 12.4593 10.8781 11.8843 11.55 11.1C12.5562 9.93122 12.9344 8.38434 12.5781 6.89059C12.15 5.08122 10.6594 3.68434 8.81248 3.35622C8.48123 3.29684 7.78123 3.27497 7.46873 3.31247ZM9.49685 3.97184C9.5906 4.05934 9.64373 4.18747 9.71873 4.52184C9.85623 5.11872 9.9031 5.20934 10.3469 5.75622C11.1719 6.77184 11.5312 7.65622 11.5312 8.68747C11.5312 9.13747 11.4687 9.51559 11.3312 9.87809C10.9344 10.9406 9.99998 11.7 8.78748 11.9531C8.4656 12.0187 8.43123 12.0125 8.62498 11.9156C8.8531 11.8031 9.1281 11.5218 9.24685 11.2781C9.49685 10.7625 9.4406 10.0968 9.09998 9.53747C8.88435 9.17809 8.48435 8.82809 8.1281 8.68747C7.62498 8.49059 7.45935 8.76872 7.73123 9.35934C7.79373 9.49372 7.84373 9.62809 7.84373 9.65934C7.84373 9.68747 7.80623 9.75622 7.76248 9.80934C7.64998 9.94372 7.52185 9.94059 7.33435 9.79372C7.08123 9.59684 6.86873 9.65309 6.73123 9.94997C6.53748 10.3718 6.55623 10.9187 6.77498 11.325C6.88748 11.5375 7.16873 11.8125 7.37498 11.9156C7.56873 12.0125 7.53123 12.0187 7.19998 11.95C5.78748 11.6593 4.74373 10.6312 4.51248 9.30622C4.4406 8.89997 4.4656 8.11247 4.55935 7.78747C4.69685 7.31559 4.98123 6.87809 5.50623 6.32497C5.66873 6.15309 5.84373 5.95934 5.89685 5.89059C6.00623 5.74684 6.15935 5.44997 6.21873 5.26559C6.38123 4.75934 6.56873 4.69059 6.88435 5.02809C7.14373 5.30622 7.3031 5.77809 7.26873 6.16872C7.2531 6.31872 7.2156 6.46247 7.1406 6.62809C7.0781 6.75934 7.03123 6.91872 7.03123 6.98122C7.03123 7.32184 7.39685 7.60934 7.73123 7.53434C8.10935 7.44684 8.37498 6.90309 8.37498 6.22184C8.37498 5.25622 8.56248 4.43434 8.8531 4.12809C9.0531 3.91872 9.35935 3.84372 9.49685 3.97184Z" fill="#EAC0C0"/>
</g>
</g>
</svg>
