<svg width="64" height="64" viewBox="0 0 64 64" fill="none" xmlns="http://www.w3.org/2000/svg">
<g id="ring 1 (traced)">
<g id="Black">
<path id="Vector" d="M5.5625 10.8625C4.6375 11.425 2.9 13.7125 1.9375 15.6375C1.1625 17.1875 0.6 18.9 0.3125 20.55C0.0625 22 0.0625 25 0.3125 26.45C0.8625 29.65 2.3375 32.7 4.55 35.2C5.3375 36.0875 5.8375 36.375 6.5625 36.375C7.675 36.375 8.6125 35.325 8.4625 34.2375C8.3875 33.675 8.3375 33.6 7.0625 32.0625C5.3625 30.025 4.225 27.275 4.025 24.725C3.825 22.1625 4.2 20.025 5.25 17.7875C5.95 16.3125 6.35 15.7 7.5125 14.35C8.6 13.0875 8.75 12.425 8.1375 11.425C7.675 10.675 6.3375 10.375 5.5625 10.8625Z" fill="#2EB6C6"/>
<path id="Vector_2" d="M56.5 10.85C56.0125 11.1125 55.5 11.9625 55.5 12.5125C55.5 13.0875 55.7125 13.4625 56.5375 14.4125C57.525 15.55 57.975 16.2 58.5625 17.375C59.5625 19.3625 60 21.2125 60 23.5C60 26.7625 58.9875 29.575 56.925 32.0625C55.6625 33.6 55.6125 33.675 55.5375 34.225C55.3375 35.7 56.875 36.8 58.2875 36.2C59.175 35.8375 61.2125 33.1375 62.25 30.9625C63.3875 28.575 63.875 26.3375 63.875 23.5C63.875 20.5125 63.3375 18.2 62.0625 15.6375C61.075 13.6625 59.225 11.25 58.35 10.8C57.875 10.5625 57.0125 10.575 56.5 10.85Z" fill="#2EB6C6"/>
<path id="Vector_3" d="M25.7499 12.6875C22.3499 13.4375 19.7624 15.7625 18.5999 19.125L18.1874 20.3125L18.1249 26.5C18.0749 30.2875 17.9999 32.8375 17.9124 33.0625C17.6124 33.9375 17.0624 34.7875 15.8124 36.3125C13.4624 39.175 13.1874 39.625 12.9874 41.0875C12.6374 43.5625 13.3499 45.2375 15.1124 46.05C15.6874 46.3125 15.6874 46.3125 31.1874 46.3125H46.6874L47.2624 46.05C47.9749 45.725 48.7374 44.9875 49.0624 44.3125C49.2749 43.8875 49.3124 43.55 49.3124 42C49.3124 39.65 49.3124 39.65 46.4624 36.2C45.6999 35.2625 45.0499 34.325 44.7624 33.75L44.3124 32.8125L44.2374 26.625C44.1624 19.675 44.1749 19.8 43.1874 17.8125C42.2249 15.85 40.7874 14.4125 38.8124 13.45C37.0749 12.6 36.9624 12.5875 31.4999 12.55C27.5624 12.5125 26.3999 12.55 25.7499 12.6875Z" fill="#30383D"/>
<path id="Vector_4" d="M10.0624 15.1125C9.23741 15.4875 7.99991 17.0375 7.23741 18.675C5.58741 22.1875 5.91241 26.5875 8.03741 29.75C8.67491 30.7 9.49991 31.625 9.91241 31.825C10.1249 31.9375 10.5624 32.025 10.8874 32.025C12.0124 32.025 12.7499 31.2625 12.7499 30.1C12.7499 29.525 12.6499 29.325 11.6999 28.1C9.47491 25.2375 9.53741 21.45 11.8499 18.6625C12.6499 17.7 12.7499 17.5 12.7499 16.8C12.7499 16.0375 12.3624 15.4125 11.6999 15.1125C11.0624 14.825 10.6999 14.825 10.0624 15.1125Z" fill="#2EB6C6"/>
<path id="Vector_5" d="M52.2875 15.125C51.6 15.425 51.25 16 51.25 16.7875C51.25 17.5 51.35 17.7 52.1375 18.6625C52.825 19.475 53.525 20.8625 53.75 21.8625C53.8375 22.225 53.9125 22.9625 53.9125 23.5C53.9125 24.0375 53.8375 24.775 53.75 25.1375C53.55 26.05 52.8625 27.45 52.3375 28.0625C51.5 29.0375 51.25 29.5 51.25 30.0875C51.25 31.2625 51.9875 32.025 53.1125 32.025C53.8875 32.025 54.35 31.775 55.0375 30.975C56.3 29.4875 57.175 27.7125 57.5875 25.8125C57.8875 24.475 57.85 22.1875 57.5125 20.8125C56.95 18.525 55.1625 15.6625 53.95 15.1125C53.3 14.8125 52.95 14.825 52.2875 15.125Z" fill="#2EB6C6"/>
<path id="Vector_6" d="M27.3126 50.4625C27.5251 51.675 28.2251 52.575 29.3126 53.075C29.8376 53.325 30.1376 53.375 31.1876 53.375C32.2376 53.375 32.5376 53.325 33.0626 53.075C34.1001 52.6 34.8501 51.6125 35.0501 50.4625L35.1376 50H31.1751H27.2251L27.3126 50.4625Z" fill="#30383D"/>
</g>
</g>
</svg>
