<svg width="42" height="42" viewBox="0 0 42 42" fill="none" xmlns="http://www.w3.org/2000/svg">
<g clip-path="url(#clip0_4030_8440)">
<path fill-rule="evenodd" clip-rule="evenodd" d="M6.34096 3.37149C6.78393 2.92031 7.2269 2.63321 7.79291 2.44453C8.46557 2.22305 9.64682 2.27227 10.2539 2.55117C10.9429 2.8711 35.1749 16.8738 35.6507 17.2266C36.6351 17.9648 37.1683 19.384 36.914 20.6309C36.8648 20.9016 36.6925 21.3691 36.5449 21.6727L36.2742 22.2141L34.9124 24.6094C34.8878 24.6094 34.7238 24.8555 34.5515 25.159C32.9683 27.8906 32.6402 28.4813 32.6648 28.5059L31.2621 30.8602L31.057 31.2129C30.2285 32.6238 28.1777 33.2555 26.6437 32.5746C26.4468 32.4844 24.0023 31.0898 21.205 29.4738L16.1191 26.5289L16.0781 30.1875C16.0384 33.4434 16.0414 34.0248 15.7529 34.3375C15.6831 34.4133 15.5962 34.4732 15.4874 34.5516L15.2167 34.7402L11.5992 34.7648L7.98159 34.7895L7.84213 35.2816C7.15307 37.7836 4.6183 39.6949 2.00151 39.7031C1.36166 39.7031 1.04174 39.5555 0.705414 39.1043C0.533352 38.8749 0.533148 38.8091 0.5168 33.545L0.516742 33.5262L0.492132 28.1777L0.680804 27.8578C0.967914 27.3492 1.30424 27.1934 2.09995 27.2098C2.99409 27.2262 3.74057 27.4148 4.67573 27.8742C5.34838 28.1941 5.56166 28.3582 6.23432 29.0309C7.07104 29.8676 7.53041 30.6059 7.84213 31.6066L7.98979 32.0742H10.6804H13.371L13.3546 28.4977L13.33 24.9211L7.58784 21.607C4.42963 19.7859 1.64057 18.1453 1.38627 17.9648C0.844867 17.5957 0.311664 16.8492 0.122992 16.2176C-0.0492738 15.627 -0.0328675 14.5688 0.155804 14.0191C0.393695 13.3301 5.9308 3.79805 6.34096 3.37149ZM34.1824 19.6793C34.0757 19.425 33.0175 18.7934 21.5988 12.198C12.4687 6.93164 9.0562 5.00391 8.87573 5.00391C8.72807 5.00391 8.53119 5.08594 8.40815 5.18438C8.2933 5.29102 6.9644 7.51406 5.45502 10.1309L5.40714 10.2139C2.49362 15.2661 2.48771 15.2764 2.89565 15.668C3.09252 15.8648 27.0867 29.7527 27.7101 30.0398C28.0546 30.1957 28.071 30.1957 28.3664 30.048C28.6371 29.9168 28.9078 29.482 31.4343 25.1016C32.9601 22.4602 34.2316 20.2289 34.2562 20.1305C34.2808 20.032 34.248 19.8352 34.1824 19.6793ZM5.03666 35.0109C5.82416 33.3867 5.24995 31.418 3.69955 30.4172C3.49448 30.2941 3.2976 30.1875 3.26479 30.1875C3.23198 30.1875 3.19916 31.6641 3.19916 33.4688V36.75L3.5437 36.5777C4.03588 36.3234 4.77416 35.5523 5.03666 35.0109Z" fill="#30383D"/>
<path d="M32.9437 31.8117L31.2621 30.8602L32.6648 28.5059C32.8863 28.7027 35.8886 30.3434 35.9296 30.2941C35.9706 30.2613 36.4874 29.3836 37.0863 28.35C37.9394 26.8734 38.1445 26.4633 38.0542 26.4059C37.9947 26.3687 37.3952 26.0209 36.672 25.6015L36.4464 25.4707C35.6343 24.9949 34.9371 24.6094 34.9124 24.6094L36.2742 22.2141L37.8984 23.1574C39.5226 24.0926 39.5308 24.0926 39.6785 23.9285C39.941 23.6332 40.4988 23.4363 40.9007 23.502C41.5734 23.6004 41.9999 24.1336 41.9999 24.8637C41.9999 25.2738 41.9097 25.4543 39.5636 29.523C38.2183 31.8527 37.0124 33.8707 36.8894 34.0184C36.43 34.5434 35.5769 34.568 35.0273 34.0758C34.7074 33.7887 34.5269 33.3211 34.5843 32.9602C34.6171 32.7879 34.4449 32.673 32.9437 31.8117Z" fill="#2EB6C6"/>
<path d="M10.6886 9.11367C10.3276 9.22031 9.95028 9.62227 9.82724 10.016C9.71239 10.4262 9.83544 11.0086 10.1143 11.3039C10.2784 11.4844 10.9839 11.9027 13.5268 13.3629C14.4292 13.8715 14.6015 13.9453 14.9624 13.9453C15.2167 13.9453 15.4956 13.8879 15.6679 13.7895C16.2503 13.4859 16.4882 12.641 16.1847 12.0012C16.0288 11.6566 15.8565 11.55 13.412 10.1473C11.5417 9.07266 11.2218 8.94961 10.6886 9.11367Z" fill="#2EB6C6"/>
</g>
<defs>
<clipPath id="clip0_4030_8440">
<rect width="42" height="42" fill="white"/>
</clipPath>
</defs>
</svg>
