<svg width="42" height="42" viewBox="0 0 42 42" fill="none" xmlns="http://www.w3.org/2000/svg">
<path d="M7.15435 5.12928C6.99675 8.03694 6.93186 8.37483 6.40345 8.82832C6.10679 9.08618 5.77306 9.20178 3.83554 9.69973C2.82507 9.9487 2 10.1888 2 10.2155C2 10.2421 2.8158 10.5711 3.817 10.9357C5.70817 11.6115 6.07898 11.7982 6.37564 12.1895C6.68156 12.5718 6.72791 13.0253 6.63521 14.5369C6.57959 15.3194 6.5425 16.1908 6.5425 16.4843V17L7.53444 15.8174C8.90646 14.1724 9.46268 13.6477 9.94475 13.5233C10.4453 13.3899 10.5195 13.4077 12.6888 14.199C13.6993 14.5636 14.5429 14.8482 14.5707 14.8215C14.5985 14.7948 14.1628 14.1012 13.6066 13.2832C13.0503 12.4562 12.5219 11.656 12.4385 11.4959C12.2438 11.1313 12.2438 10.4733 12.4385 10.1176C12.5219 9.96648 13.1523 9.1751 13.8383 8.36594C14.5243 7.55677 15.0435 6.88099 14.9971 6.8632C14.9508 6.85431 14.0608 7.05882 13.0133 7.33447C10.983 7.8591 10.7049 7.89466 10.2043 7.69015C9.7408 7.51231 9.4905 7.21888 8.34096 5.51163C7.78474 4.68468 7.30268 4 7.27487 4C7.23778 4 7.18216 4.50684 7.15435 5.12928Z" fill="#2EB6C6"/>
<path d="M35.9948 2.0315C35.0855 3.33301 34.9008 3.4008 33.267 2.99407C32.6134 2.83139 32.0452 2.72293 32.0025 2.7636C31.9741 2.79071 32.1872 3.11609 32.4998 3.46858C33.7784 4.9599 33.8069 5.17681 32.8834 6.58678C32.5282 7.14264 32.2441 7.61715 32.2725 7.64426C32.3009 7.67138 32.8123 7.50869 33.3948 7.29177C33.9773 7.07485 34.6451 6.8986 34.8724 6.8986C35.2844 6.8986 35.8385 7.346 36.762 8.4577L37.2166 9L37.2308 7.6307C37.2308 5.99026 37.3018 5.8818 38.822 5.32595C39.3903 5.12259 39.9159 4.90567 39.987 4.85144C40.058 4.79721 39.8307 4.67519 39.4897 4.59385C38.1969 4.28203 37.5433 4.03799 37.3018 3.7804C37.1171 3.5906 37.0177 3.15676 36.9324 2.27553C36.8756 1.59766 36.8046 1.02825 36.7762 1.00114C36.762 0.974023 36.3926 1.43497 35.9948 2.0315Z" fill="#2EB6C6"/>
<path d="M21.7061 9.17961C21.6043 9.28901 21.517 9.47133 21.4952 9.66825C21.4734 9.84328 21.357 12.0239 21.2334 14.5108C21.0807 17.5229 20.9716 19.1565 20.9062 19.4045C20.768 19.8931 20.4407 20.3307 20.0262 20.5713C19.7862 20.7099 18.3681 21.1256 15.1391 21.9935C12.6374 22.6644 10.492 23.2552 10.3757 23.3062C9.96115 23.4813 9.86661 24.1376 10.2084 24.4512C10.2884 24.5315 12.3392 25.3556 14.761 26.2891C17.1827 27.2153 19.299 28.0613 19.4735 28.1561C19.8589 28.3822 20.1862 28.8271 20.3316 29.323C20.4334 29.6731 20.4189 30.0815 20.1862 34.5594C20.0189 37.6735 19.9535 39.4822 19.9971 39.5916C20.0916 39.8396 20.3535 40 20.6662 40C20.8771 40 21.0007 39.9417 21.1971 39.7593C21.328 39.6353 22.7243 37.9361 24.2878 35.9888C25.8514 34.0416 27.2623 32.3423 27.4295 32.211C27.8077 31.912 28.4186 31.7297 28.8404 31.788C29.0149 31.8099 31.1603 32.5976 33.6111 33.5457C36.5855 34.6907 38.1636 35.2595 38.3454 35.2595C38.8545 35.2595 39.1745 34.7344 38.9563 34.275C38.8981 34.151 37.6837 32.2475 36.2583 30.0523C33.502 25.7859 33.4438 25.6838 33.5529 24.969C33.582 24.794 33.6984 24.4804 33.8147 24.2835C33.9311 24.0793 35.3347 22.2925 36.9419 20.3088C38.5491 18.3251 39.8945 16.6404 39.9308 16.5748C40.1563 16.1518 39.7999 15.5683 39.3054 15.5683C39.1672 15.5683 37.0291 16.1153 34.5565 16.779C32.0912 17.4426 29.9167 18.0042 29.7349 18.0261C29.2404 18.0844 28.644 17.8729 28.2513 17.5083C28.0477 17.3186 26.9714 15.7215 25.3423 13.1981C23.9169 10.9883 22.6952 9.14315 22.6297 9.0921C22.4261 8.93894 21.9025 8.9827 21.7061 9.17961Z" fill="#30383D"/>
</svg>
