<svg width="124" height="124" viewBox="0 0 124 124" fill="none" xmlns="http://www.w3.org/2000/svg">
<g id="check 1 (traced)" clip-path="url(#clip0_4030_8798)">
<g id="Black">
<path id="Vector" d="M55.8242 0.16951C39.5734 1.91326 24.8484 9.68748 14.4828 22.039C7.19292 30.7094 2.66401 40.5422 0.653857 52.0703C0.193701 54.7101 0.145264 55.9937 0.145264 62C0.145264 68.0062 0.193701 69.2898 0.653857 71.9297C2.93042 85.0078 8.40386 95.8336 17.4374 105.206C26.7132 114.845 38.4109 120.948 52.0703 123.346C54.7101 123.806 55.9937 123.855 61.9999 123.855C69.5804 123.855 71.857 123.612 77.8148 122.087C99.1757 116.565 116.565 99.1758 122.087 77.8148C123.612 71.857 123.855 69.5805 123.855 62C123.855 54.4195 123.612 52.143 122.087 46.1851C116.565 24.8484 99.1757 7.43513 77.8148 1.91326C72.3171 0.508575 69.7257 0.193733 62.9687 0.121078C59.5781 0.0726395 56.357 0.0968552 55.8242 0.16951ZM66.6257 11.625C76.0953 12.5695 84.4992 15.839 92.2976 21.6031C101.016 28.0695 107.919 38.1687 110.777 48.7039C113.198 57.6164 113.198 66.3836 110.777 75.2961C107.919 85.8312 101.016 95.9305 92.2976 102.397C87.0179 106.296 81.1328 109.202 75.296 110.777C66.3835 113.198 57.6164 113.198 48.7039 110.777C42.8671 109.202 36.982 106.296 31.7023 102.397C22.9835 95.9305 16.0812 85.8312 13.2234 75.2961C11.189 67.8125 10.8742 60.3531 12.2546 52.918C14.2406 42.1406 19.8593 32.114 28.0937 24.6062C32.6953 20.3922 39.1132 16.5172 45.1195 14.3133C51.5374 11.964 59.7476 10.9469 66.6257 11.625Z" fill="#30383D"/>
<path id="Vector_2" d="M87.3086 38.6531C86.1703 39.0164 84.9836 40.1305 69.75 55.3641L53.4023 71.6875L45.8945 64.1797C37.6602 55.9938 37.3211 55.7031 34.7539 55.7031C31.4602 55.7031 29.0625 58.1008 29.0625 61.3219C29.0625 63.8164 29.3531 64.1555 40.2273 75.0055C50.157 84.8625 50.2781 84.9836 51.707 85.3953C52.918 85.7344 53.3781 85.7586 54.468 85.5406C55.1945 85.3711 56.1875 84.9836 56.6477 84.6445C57.132 84.3297 65.7055 75.8531 75.732 65.8266C89.7547 51.7797 94.0656 47.3477 94.4289 46.5C95.882 43.3274 94.1867 39.5977 90.8688 38.6047C89.5125 38.193 88.8586 38.193 87.3086 38.6531Z" fill="#2EB6C6"/>
</g>
</g>
<defs>
<clipPath id="clip0_4030_8798">
<rect width="124" height="124" fill="white"/>
</clipPath>
</defs>
</svg>
