<svg width="42" height="42" viewBox="0 0 42 42" fill="none" xmlns="http://www.w3.org/2000/svg">
<path d="M11.2957 1.40273C10.4426 1.60781 9.46641 2.3707 9.03984 3.18281C8.90859 3.43711 8.44102 4.7168 8.00625 6.0293L7.21875 8.4082L6.74297 8.6543C6.08672 8.99883 5.26641 9.83555 4.89727 10.5492C4.40508 11.509 4.34766 11.8781 4.34766 14.4949C4.34766 15.7746 4.37227 16.8164 4.39687 16.8164C4.42148 16.8164 4.63477 16.6441 4.86445 16.4391C5.39766 15.9633 6.20977 15.4875 6.90703 15.2496L7.44844 15.0609L7.48125 13.6992C7.50586 12.1734 7.56328 12.0094 8.1457 11.5336L8.46562 11.2793L11.5582 11.2547L14.659 11.2301L14.9215 10.3523C15.0691 9.86836 15.3316 9.17109 15.5121 8.80195C15.6844 8.43281 15.832 8.11289 15.832 8.08828C15.832 8.06367 14.6918 8.03906 13.2891 8.03906C11.8945 8.03906 10.7461 8.01445 10.7461 7.97344C10.7461 7.76836 11.8207 4.7168 11.9437 4.58555C12.0832 4.42969 12.2227 4.42969 17.8746 4.44609L23.666 4.4707L23.8629 4.77422L24.0598 5.08594H25.6922C27.0785 5.08594 27.3164 5.06953 27.3164 4.96289C27.3164 4.76602 26.9801 3.58477 26.8488 3.32227C26.4059 2.45273 25.5937 1.74727 24.7078 1.47656C24.1992 1.3207 23.9449 1.3125 17.891 1.3207C14.4375 1.32891 11.468 1.36172 11.2957 1.40273Z" fill="#30383D"/>
<path d="M20.6227 8.16209C20.3438 8.21951 19.9582 8.35076 19.7695 8.4492C19.3102 8.68709 18.5965 9.35975 18.334 9.81092C18.1535 10.1144 16.5703 14.659 16.5703 14.864C16.5703 14.9051 17.3168 14.9215 18.2273 14.9133L19.8762 14.8887L20.434 13.2152C20.7457 12.2965 21.0574 11.4762 21.1313 11.3941C21.2625 11.2465 21.5168 11.2383 27.1113 11.2383C31.6477 11.2383 32.9766 11.2629 33.0832 11.3367C33.157 11.3941 33.4688 12.1898 33.7805 13.1004L34.3465 14.7656L27.4887 14.7738C21.443 14.782 20.7129 14.7984 21.3363 14.8887C22.6078 15.0937 23.6496 15.5367 24.634 16.3078C25.0852 16.6605 25.8891 17.5383 25.9793 17.7762C26.0121 17.8582 27.0703 17.8828 31.0816 17.8828C34.5105 17.8828 36.2414 17.9156 36.4629 17.973C36.8977 18.0961 37.3652 18.5719 37.4883 19.023C37.5457 19.2609 37.5703 20.0894 37.5539 21.5742L37.5293 23.7726L37.2832 24.1254C37.152 24.314 36.8895 24.5519 36.709 24.6422C36.3973 24.8062 36.225 24.8144 33.1324 24.8554L29.884 24.8965L30.3105 25.6101C30.5566 26.0203 30.852 26.6683 31.0078 27.1441L31.2785 27.9726H32.8945H34.5105L34.5598 28.2433C34.6992 29.0965 35.5441 30.1137 36.3727 30.4254C37.6934 30.9176 38.9156 30.6551 39.9164 29.6543C40.7367 28.8422 40.6957 29.1539 40.6711 23.3297L40.6465 18.334L40.4496 17.8254C40.023 16.7508 39.1371 15.7418 38.1938 15.2742C37.7754 15.0609 37.882 15.2988 36.8813 12.3867C36.5039 11.2793 36.102 10.1801 35.9871 9.95037C35.5359 9.07264 34.4941 8.30975 33.477 8.12107C32.7715 7.98982 21.2461 8.02264 20.6227 8.16209Z" fill="#2EB6C6"/>
<path d="M10.7871 12.7723C10.6969 12.7887 10.541 12.8215 10.4426 12.8461C10.1719 12.8953 9.67148 13.3629 9.54844 13.6746C9.48281 13.8223 9.43359 14.134 9.43359 14.3637C9.43359 15.7254 11.0004 16.3898 12.034 15.4793C12.3867 15.1676 12.5508 14.8066 12.5508 14.3555C12.5508 13.7156 12.1242 13.043 11.6156 12.8871C11.2301 12.7723 10.9676 12.7312 10.7871 12.7723Z" fill="#30383D"/>
<path d="M8.36719 17.9156C8.12109 17.9648 7.73555 18.0961 7.50586 18.2109C6.98906 18.457 6.16055 19.2855 5.91445 19.7859C5.81602 19.9992 5.37305 21.2871 4.93008 22.657L4.13437 25.1344L3.6668 25.4051C2.6168 26.0285 1.82109 27.0129 1.45195 28.1777C1.27148 28.7437 1.27148 28.8258 1.27148 33.5508V38.3496L1.52578 38.891C1.86211 39.5883 2.25586 40.023 2.84648 40.3348C4.69219 41.3109 6.84141 40.4004 7.37461 38.407L7.47305 38.0625H14.8477H22.2305V38.243C22.2305 38.5301 22.6734 39.3996 23.0098 39.7769C23.4199 40.2281 24.2977 40.6547 24.9621 40.7285C26.25 40.868 27.5707 40.1543 28.1367 39.0223L28.3828 38.5301V33.682C28.3828 28.3336 28.3828 28.35 27.866 27.3164C27.5461 26.6601 26.6437 25.7332 26.0039 25.3969C25.7578 25.2656 25.5445 25.1508 25.5281 25.1426C25.5199 25.1344 25.1426 23.9941 24.6996 22.6242C24.2566 21.2461 23.7891 19.9254 23.6578 19.6793C23.1574 18.7605 22.1566 18.0551 21.123 17.8828C20.3766 17.7598 8.94141 17.7844 8.36719 17.9156ZM20.7703 21.0984C20.8934 21.1969 22.1074 24.757 22.0418 24.8309C22.0254 24.8473 18.7605 24.8473 14.7902 24.8391L7.57148 24.8144L8.1375 23.0508C8.45742 22.0828 8.76914 21.2215 8.84297 21.1394C8.95781 21.0082 9.35156 21 14.8066 21C19.3512 21 20.6719 21.0246 20.7703 21.0984ZM24.3223 28.1285C24.7406 28.3172 25.0687 28.7027 25.1836 29.1293C25.241 29.3344 25.2656 30.2531 25.2492 31.6066C25.2246 34.084 25.1918 34.2152 24.5355 34.6254L24.1664 34.8633H14.8559C4.41328 34.8633 5.2418 34.9125 4.725 34.2644L4.4707 33.9445L4.44609 31.582C4.42148 29.3672 4.42969 29.1867 4.58555 28.8996C4.78242 28.5141 5.03672 28.268 5.41406 28.1039C5.66836 27.9973 6.85781 27.9809 14.8477 27.9809C23.5512 27.9726 24.0105 27.9809 24.3223 28.1285Z" fill="#30383D"/>
<path d="M7.11222 30.0316C6.51339 30.3434 6.17707 31.2047 6.39855 31.8609C6.68566 32.7387 7.67003 33.1981 8.51496 32.8535C9.05636 32.6238 9.35988 32.2383 9.46652 31.6477C9.58136 31.0406 9.18761 30.2777 8.60519 29.9742C8.26886 29.802 7.48957 29.8348 7.11222 30.0316Z" fill="#30383D"/>
<path d="M11.3203 31.418V32.9766H14.8477H18.375V31.418V29.8594H14.8477H11.3203V31.418Z" fill="#30383D"/>
<path d="M21.1231 29.9906C20.7703 30.1711 20.5898 30.3516 20.4094 30.7125C20.1797 31.1637 20.2289 31.8527 20.5242 32.3039C21.1559 33.2555 22.6981 33.1652 23.2231 32.1399C23.4856 31.6313 23.4199 30.8766 23.0836 30.4582C22.9441 30.286 22.7063 30.0809 22.5504 30.007C22.1977 29.8266 21.4512 29.8184 21.1231 29.9906Z" fill="#30383D"/>
<path d="M26.9308 19.868C26.9472 19.9254 27.1851 20.6309 27.4394 21.4266L27.9234 22.8867H29.3015H30.6796V21.3281V19.7695H28.7847C27.2999 19.7695 26.898 19.7941 26.9308 19.868Z" fill="#2EB6C6"/>
<path d="M33.4276 19.909C33.0503 20.1058 32.8862 20.2781 32.7222 20.6308C32.4515 21.2297 32.5909 22.1074 33.0257 22.4929C33.6327 23.0262 34.7812 22.9933 35.2816 22.4273C35.8148 21.8121 35.8148 20.8441 35.2816 20.2289C34.9042 19.7941 33.9526 19.6301 33.4276 19.909Z" fill="#2EB6C6"/>
</svg>
