<svg width="42" height="42" viewBox="0 0 42 42" fill="none" xmlns="http://www.w3.org/2000/svg">
<g id="upload 1 (traced)">
<g id="Black">
<path id="Vector" d="M20.2617 1.8539C19.8761 2.01797 9.16284 12.7148 8.92495 13.166C8.67886 13.6336 8.68706 14.3145 8.94956 14.823C9.23667 15.3809 9.70425 15.6926 10.3277 15.7336C11.2382 15.7992 11.0906 15.9223 15.3234 11.7059L19.1953 7.83398V18.9164C19.1953 31.057 19.1707 30.4254 19.671 30.9504C20.032 31.3277 20.4421 31.5 21 31.5C21.8203 31.5 22.4847 31.0242 22.7144 30.2777C22.78 30.048 22.8046 26.9555 22.8046 18.9V7.83398L26.6847 11.7059C30.9093 15.9223 30.7617 15.7992 31.6722 15.7336C32.2875 15.6926 32.7632 15.3809 33.0503 14.823C33.3046 14.3227 33.3128 13.6254 33.075 13.1578C32.8289 12.682 22.1156 2.00976 21.7218 1.8457C21.3363 1.68984 20.639 1.68984 20.2617 1.8539Z" fill="#2EB6C6"/>
<path id="Vector_2" d="M2.74806 22.8785C2.34611 23.0672 2.01799 23.4035 1.85392 23.8055C1.66525 24.2485 1.65705 32.2711 1.84572 33.3129C2.45275 36.8156 5.18439 39.5473 8.68713 40.1543C9.71252 40.3348 32.2875 40.3348 33.3129 40.1543C36.8156 39.5473 39.5473 36.8156 40.1543 33.3129C40.343 32.2711 40.3348 24.2485 40.1461 23.8055C39.6211 22.534 37.8082 22.3453 37.0289 23.4774L36.791 23.8137L36.7418 28.2106C36.6844 32.9274 36.6844 32.9192 36.2332 33.8953C35.6262 35.2078 34.3711 36.225 32.8946 36.5942C32.2219 36.7664 9.77814 36.7664 9.10549 36.5942C7.62892 36.225 6.37385 35.2078 5.76682 33.8953C5.31564 32.9192 5.31564 32.9274 5.25822 28.2106L5.209 23.8137L4.97111 23.4774C4.51174 22.8047 3.49455 22.534 2.74806 22.8785Z" fill="#151515"/>
</g>
</g>
</svg>
