<svg width="18" height="18" viewBox="0 0 18 18" fill="none" xmlns="http://www.w3.org/2000/svg">
<path d="M5.41675 13.1667V11.5H12.0834V13.1667H5.41675ZM12.0834 7.33335L8.75008 4.00002L5.41675 7.33335H7.50008V10.6667H10.0001V7.33335H12.0834ZM8.75008 0.666687C13.3334 0.666687 17.0834 4.41669 17.0834 9.00002C17.0834 13.5834 13.3334 17.3334 8.75008 17.3334C4.16675 17.3334 0.416748 13.5834 0.416748 9.00002C0.416748 4.41669 4.16675 0.666687 8.75008 0.666687ZM8.75008 2.33335C5.06675 2.33335 2.08341 5.31669 2.08341 9.00002C2.08341 12.6834 5.06675 15.6667 8.75008 15.6667C12.4334 15.6667 15.4167 12.6834 15.4167 9.00002C15.4167 5.31669 12.4334 2.33335 8.75008 2.33335Z" fill="#78BBE1"/>
</svg>
