<svg width="42" height="42" viewBox="0 0 42 42" fill="none" xmlns="http://www.w3.org/2000/svg">
<path d="M13.3232 12.6661C12.9444 12.813 12.5965 13.1299 12.4187 13.5242C12.2795 13.818 12.2718 14.1813 12.2718 20.8373C12.2718 28.4674 12.2563 28.1273 12.7124 28.5911C13.184 29.0704 14.073 29.2482 14.6142 28.9777C15.6964 28.4211 26.4343 22.2211 26.6353 22.0356C26.9831 21.7186 27.13 21.3476 27.13 20.8219C27.13 20.3271 26.929 19.8633 26.5966 19.585C26.4729 19.4845 23.7054 17.8765 20.443 16.0134C14.8306 12.8052 14.4827 12.6197 14.0653 12.5888C13.7947 12.5656 13.5087 12.5965 13.3232 12.6661Z" fill="#2EB6C6"/>
<path d="M4.96637 6.13376C3.68309 6.72901 3.68309 8.58436 4.96637 9.16415C5.26013 9.3033 5.94042 9.31104 20.5126 9.31104H35.7419L36.1671 9.09458C37.288 8.53024 37.3576 6.93774 36.2985 6.23425L35.9738 6.02553L20.6286 6.01007C5.81673 5.98688 5.26786 5.99461 4.96637 6.13376Z" fill="#30383D"/>
<path d="M5.08225 12.6585C4.71118 12.7744 4.20869 13.3001 4.09273 13.6866C3.65982 15.1477 5.08998 16.4078 6.43511 15.743C7.40143 15.2714 7.66427 13.9959 6.95306 13.1764C6.48149 12.6198 5.8012 12.4343 5.08225 12.6585Z" fill="#30383D"/>
<path d="M28.2355 12.6429C27.8644 12.7511 27.3774 13.2149 27.2305 13.6015C26.9136 14.4286 27.2382 15.3331 28.0036 15.7197L28.3824 15.9207H32.1008C35.7496 15.9207 35.8192 15.9207 36.1207 15.7506C37.3963 15.0703 37.3499 13.3 36.0434 12.7047C35.7574 12.5733 35.4636 12.5578 32.1008 12.5656C30.1063 12.5656 28.3592 12.6042 28.2355 12.6429Z" fill="#30383D"/>
<path d="M5.15959 19.2448C4.50249 19.4535 4.00773 20.1416 4 20.8373C4 21.3707 4.33242 21.9737 4.78852 22.252C5.94038 22.9555 7.35508 22.167 7.34735 20.8219C7.33189 19.6777 6.25734 18.8969 5.15959 19.2448Z" fill="#30383D"/>
<path d="M31.6756 19.1985C30.6938 19.5077 30.199 20.3813 30.4696 21.3244C30.6165 21.8114 31.1112 22.3216 31.5673 22.4453C31.9693 22.5613 35.479 22.5536 35.8888 22.4453C36.3526 22.3139 36.8937 21.7264 37.002 21.2239C37.172 20.4199 36.8396 19.7164 36.082 19.3144C35.8424 19.183 35.595 19.1675 33.8401 19.1521C32.7579 19.1444 31.7838 19.1675 31.6756 19.1985Z" fill="#30383D"/>
<path d="M4.96629 25.9163C3.94585 26.4033 3.68301 27.6711 4.42515 28.537C4.78076 28.9544 5.23686 29.1322 5.85531 29.0858C7.3937 28.9776 7.91938 26.8903 6.61291 26.0322C6.19546 25.7539 5.43013 25.6998 4.96629 25.9163Z" fill="#30383D"/>
<path d="M28.0731 25.9163C27.6479 26.156 27.5087 26.2874 27.3155 26.6353C26.8053 27.5165 27.2923 28.7457 28.2509 29.024C28.4519 29.0859 29.7197 29.1013 32.2708 29.0859L35.9892 29.0627L36.3216 28.8307C37.288 28.1505 37.2725 26.6739 36.2984 26.0245L35.9738 25.8158L32.1471 25.8003C28.6451 25.7849 28.2895 25.7926 28.0731 25.9163Z" fill="#30383D"/>
<path d="M5.12091 32.441C4.23189 32.7502 3.76033 33.8557 4.14686 34.7061C4.22416 34.8761 4.40197 35.1312 4.54885 35.2704C5.07453 35.7806 4.0309 35.7574 20.6981 35.7342L35.8114 35.711L36.1206 35.541C37.1179 35.0075 37.3575 33.8016 36.6386 32.9589C36.484 32.7811 36.2211 32.5724 36.0511 32.4951C35.7496 32.356 35.1388 32.3482 20.5435 32.356C10.1535 32.356 5.28325 32.3869 5.12091 32.441Z" fill="#30383D"/>
</svg>
