<svg width="42" height="42" viewBox="0 0 42 42" fill="none" xmlns="http://www.w3.org/2000/svg">
<g clip-path="url(#clip0_4030_8511)">
<path d="M20.3028 1.81287C18.088 1.98513 16.111 3.14177 14.8396 5.02029C14.4458 5.59451 1.23878 28.4484 0.845029 29.2441C-0.12294 31.1554 -0.278799 33.2636 0.40206 35.216C1.20597 37.5375 3.16651 39.3586 5.54542 39.9902C6.56261 40.2609 7.89972 40.2855 21.7384 40.2527C36.6189 40.2199 35.7001 40.2527 36.9962 39.8015C38.8829 39.1453 40.5235 37.6359 41.3685 35.7738C42.2462 33.8297 42.2134 31.2293 41.2782 29.3918C40.9747 28.8094 27.3985 5.3238 27.1525 4.96286C25.6431 2.76443 23.1001 1.59138 20.3028 1.81287ZM22.4028 5.48787C22.9935 5.70935 23.6497 6.17693 24.0435 6.6445C24.4126 7.08747 38.0052 30.5976 38.2923 31.2867C38.686 32.2547 38.6122 33.4441 38.0872 34.5351C37.6278 35.4867 36.3892 36.4465 35.331 36.6679C35.0357 36.7254 30.647 36.75 20.713 36.7336L6.52159 36.709L5.98839 36.4793C4.93839 36.0363 4.12628 35.1832 3.68331 34.0593C3.42081 33.4113 3.41261 31.9922 3.6587 31.3769C3.84737 30.9093 17.1282 7.88317 17.7025 7.02185C18.2603 6.18513 19.015 5.63552 19.9583 5.37302C20.5653 5.20076 21.804 5.25818 22.4028 5.48787Z" fill="#30383D"/>
<path d="M20.3029 13.6336C19.9502 13.7648 19.458 14.134 19.2283 14.4457C18.8509 14.9543 18.7607 15.4383 18.8099 16.5211C18.9658 19.507 19.3677 26.0695 19.4087 26.209C19.5974 26.8488 20.2619 27.3164 20.9837 27.3164C21.4923 27.3164 21.7877 27.2098 22.0912 26.9227C22.5834 26.4633 22.567 26.5945 22.8951 21C23.2232 15.6188 23.2232 15.2496 22.9279 14.6836C22.7474 14.3391 22.3127 13.9207 21.9353 13.7402C21.558 13.568 20.6474 13.5023 20.3029 13.6336Z" fill="#2EB6C6"/>
<path d="M20.5489 28.8093C19.4005 29.0226 18.6212 30.2039 18.8673 31.3687C19.2364 33.1406 21.3856 33.7312 22.5915 32.3941C22.7966 32.1644 23.0017 31.8445 23.0509 31.6804C23.1657 31.2621 23.1493 30.5402 23.0181 30.1628C22.7802 29.4984 22.1485 28.9406 21.5251 28.8339C21.3446 28.8011 21.1477 28.7683 21.0821 28.7519C21.0165 28.7437 20.7786 28.7683 20.5489 28.8093Z" fill="#2EB6C6"/>
</g>
<defs>
<clipPath id="clip0_4030_8511">
<rect width="42" height="42" fill="white"/>
</clipPath>
</defs>
</svg>
