<svg width="21" height="20" viewBox="0 0 21 20" fill="none" xmlns="http://www.w3.org/2000/svg">
<g id="warning 1 (traced)" clip-path="url(#clip0_4233_5070)">
<g id="Black">
<path id="Vector" d="M9.9179 0.863258C8.86322 0.94529 7.92181 1.49607 7.31634 2.3906C7.12884 2.66404 0.839779 13.5469 0.652279 13.9258C0.191341 14.8359 0.117122 15.8398 0.441341 16.7695C0.824154 17.875 1.75775 18.7422 2.89056 19.0429C3.37493 19.1719 4.01165 19.1836 10.6015 19.1679C17.6874 19.1523 17.2499 19.1679 17.8671 18.9531C18.7656 18.6406 19.5468 17.9219 19.9492 17.0351C20.3671 16.1094 20.3515 14.8711 19.9062 13.9961C19.7617 13.7187 13.2968 2.53513 13.1796 2.36326C12.4609 1.31638 11.2499 0.75779 9.9179 0.863258ZM10.9179 2.61326C11.1992 2.71873 11.5117 2.94138 11.6992 3.16404C11.8749 3.37498 18.3476 14.5703 18.4843 14.8984C18.6718 15.3594 18.6367 15.9258 18.3867 16.4453C18.1679 16.8984 17.5781 17.3554 17.0742 17.4609C16.9335 17.4883 14.8437 17.5 10.1132 17.4922L3.3554 17.4804L3.1015 17.3711C2.6015 17.1601 2.21478 16.7539 2.00384 16.2187C1.87884 15.9101 1.87493 15.2344 1.99212 14.9414C2.08197 14.7187 8.40619 3.75388 8.67962 3.34373C8.94525 2.94529 9.30462 2.68357 9.75384 2.55857C10.0429 2.47654 10.6327 2.50388 10.9179 2.61326Z" fill="#DE6E6E"/>
<path id="Vector_2" d="M9.91797 6.49219C9.75 6.55469 9.51563 6.73047 9.40625 6.87891C9.22657 7.12109 9.1836 7.35156 9.20704 7.86719C9.28125 9.28906 9.47266 12.4141 9.49219 12.4805C9.58204 12.7852 9.89844 13.0078 10.2422 13.0078C10.4844 13.0078 10.625 12.957 10.7695 12.8203C11.0039 12.6016 10.9961 12.6641 11.1523 10C11.3086 7.4375 11.3086 7.26172 11.168 6.99219C11.082 6.82813 10.875 6.62891 10.6953 6.54297C10.5156 6.46094 10.082 6.42969 9.91797 6.49219Z" fill="#DE6E6E"/>
<path id="Vector_3" d="M10.0351 13.7187C9.48822 13.8203 9.11713 14.3828 9.23431 14.9375C9.4101 15.7812 10.4335 16.0625 11.0078 15.4258C11.1054 15.3164 11.2031 15.1641 11.2265 15.0859C11.2812 14.8867 11.2734 14.543 11.2109 14.3633C11.0976 14.0469 10.7968 13.7812 10.4999 13.7305C10.414 13.7148 10.3203 13.6992 10.289 13.6914C10.2578 13.6875 10.1445 13.6992 10.0351 13.7187Z" fill="#DE6E6E"/>
</g>
</g>
<defs>
<clipPath id="clip0_4233_5070">
<rect width="20" height="20" fill="white" transform="translate(0.25)"/>
</clipPath>
</defs>
</svg>
