<svg width="40" height="40" viewBox="0 0 40 40" fill="none" xmlns="http://www.w3.org/2000/svg">
<g id="car-placeholder 1 (traced)">
<path id="Ellipse 4" d="M31.25 15C31.25 21.2132 26.2132 26.25 20 26.25C13.7868 26.25 8.75 21.2132 8.75 15C8.75 8.7868 13.7868 3.75 20 3.75C26.2132 3.75 31.25 8.7868 31.25 15Z" fill="white"/>
<g id="Black">
<path id="Vector" d="M17.9943 2.15397C15.3465 2.60196 13.0263 3.79214 11.1474 5.671C9.20839 7.61674 8.00484 10.0105 7.59029 12.7719C7.42982 13.8551 7.48999 15.6069 7.71733 16.6433C8.17869 18.676 9.3488 21.5311 10.9268 24.453C13.5144 29.2471 17.3056 34.516 19.1844 35.9402C19.4853 36.1675 19.6057 36.221 19.9199 36.2411C20.2743 36.2678 20.3278 36.2478 20.7089 35.9937C22.3137 34.9239 26.2252 29.5547 28.8128 24.8742C30.5914 21.6581 31.7214 18.9635 32.2763 16.6233C32.5104 15.627 32.5705 13.8752 32.4101 12.7719C31.9955 10.0105 30.792 7.61674 28.8529 5.671C26.954 3.77208 24.6338 2.58859 21.9392 2.14729C20.9162 1.98013 19.0039 1.98681 17.9943 2.15397ZM21.4578 4.99568C23.5707 5.33669 25.3961 6.25272 26.8738 7.71703C28.4451 9.26158 29.3745 11.0669 29.7355 13.2533C29.8425 13.9354 29.8559 15.413 29.7556 16.0817C29.4346 18.2414 28.4785 20.147 26.9473 21.6715C25.0618 23.5637 22.6547 24.56 20.0002 24.56C18.3286 24.56 16.9512 24.2257 15.4668 23.45C14.5307 22.9619 13.8153 22.4337 13.0531 21.6715C11.5219 20.147 10.5657 18.2414 10.2448 16.0817C10.0843 15.0119 10.1779 13.3804 10.4654 12.2638C11.3347 8.91389 14.0025 6.20591 17.3591 5.24976C18.5693 4.90876 20.2543 4.80178 21.4578 4.99568Z" fill="#78BBE1"/>
<path id="Vector_2" d="M22.8845 13.8702V11.6827C22.8845 11.5169 22.8187 11.3579 22.7015 11.2407C22.5843 11.1235 22.4253 11.0577 22.2595 11.0577H14.7595C14.5938 11.0577 14.4348 11.1235 14.3176 11.2407C14.2004 11.3579 14.1345 11.5169 14.1345 11.6827V17.9327C14.1345 18.0984 14.2004 18.2574 14.3176 18.3746C14.4348 18.4918 14.5938 18.5577 14.7595 18.5577H22.2595C22.4253 18.5577 22.5843 18.4918 22.7015 18.3746C22.8187 18.2574 22.8845 18.0984 22.8845 17.9327V15.7452L25.3845 18.2452V11.3702L22.8845 13.8702Z" fill="#78BBE1"/>
</g>
</g>
</svg>
